<svg xmlns="http://www.w3.org/2000/svg" version="1.1" xmlns:xlink="http://www.w3.org/1999/xlink" xmlns:svgjs="http://svgjs.dev/svgjs" width="2000" height="237" viewBox="0 0 2000 237"><g transform="matrix(1,0,0,1,-1.211408977815836,0.09472202227416915)"><svg viewBox="0 0 396 47" data-background-color="#ebe3d6" preserveAspectRatio="xMidYMid meet" height="237" width="2000" xmlns="http://www.w3.org/2000/svg" xmlns:xlink="http://www.w3.org/1999/xlink"><g id="tight-bounds" transform="matrix(1,0,0,1,0.2398589776075255,-0.018784536062810275)"><svg viewBox="0 0 395.52 47.037569072125606" height="47.037569072125606" width="395.52"><g><svg viewBox="0 0 462.2475404584567 54.97320138737569" height="47.037569072125606" width="395.52"><g transform="matrix(1,0,0,1,0,7.597598744564948)"><svg viewBox="0 0 395.52 39.77800389824579" height="39.77800389824579" width="395.52"><g id="textblocktransform"><svg viewBox="0 0 395.52 39.77800389824579" height="39.77800389824579" width="395.52" id="textblock"><g><svg viewBox="0 0 395.52 39.77800389824579" height="39.77800389824579" width="395.52"><g transform="matrix(1,0,0,1,0,0)"><svg width="395.52" viewBox="4.7 -35.01176470588235 353.07 35.51176470588235" height="39.77800389824579" data-palette-color="#505050"><path d="M6.2-35L6.2-35Q6.55-35 6.93-34.85 7.3-34.7 7.55-34.35L7.55-34.35 21.35-13.65 20-13.7 33.85-34.35Q34.4-35.1 35.2-35L35.2-35Q35.8-35 36.23-34.58 36.65-34.15 36.65-33.5L36.65-33.5 36.65-1.5Q36.65-0.9 36.2-0.45 35.75 0 35.1 0L35.1 0Q34.4 0 33.95-0.45 33.5-0.9 33.5-1.5L33.5-1.5 33.5-30.45 34.4-30.35 21.75-11.2Q21.6-10.9 21.3-10.73 21-10.55 20.6-10.6L20.6-10.6Q20.25-10.55 19.93-10.73 19.6-10.9 19.4-11.2L19.4-11.2 6.7-30.55 7.65-31.2 7.65-1.5Q7.65-0.9 7.23-0.45 6.8 0 6.15 0L6.15 0Q5.5 0 5.1-0.45 4.7-0.9 4.7-1.5L4.7-1.5 4.7-33.5Q4.7-34.1 5.13-34.55 5.55-35 6.2-35ZM56.65 0.5L56.65 0.5Q52.8 0.5 49.85-1.15 46.9-2.8 45.25-5.75 43.6-8.7 43.6-12.65L43.6-12.65Q43.6-16.9 45.27-19.9 46.95-22.9 49.62-24.53 52.3-26.15 55.3-26.15L55.3-26.15Q57.5-26.15 59.57-25.38 61.65-24.6 63.25-23.08 64.85-21.55 65.85-19.35 66.85-17.15 66.9-14.25L66.9-14.25Q66.9-13.65 66.45-13.23 66-12.8 65.4-12.8L65.4-12.8 45.35-12.8 44.75-15.5 64.45-15.5 63.8-14.9 63.8-15.9Q63.55-18.25 62.25-19.9 60.95-21.55 59.12-22.4 57.3-23.25 55.3-23.25L55.3-23.25Q53.8-23.25 52.22-22.65 50.65-22.05 49.37-20.78 48.1-19.5 47.3-17.53 46.5-15.55 46.5-12.85L46.5-12.85Q46.5-9.9 47.7-7.5 48.9-5.1 51.15-3.7 53.4-2.3 56.6-2.3L56.6-2.3Q58.3-2.3 59.7-2.8 61.1-3.3 62.17-4.13 63.25-4.95 63.95-5.85L63.95-5.85Q64.5-6.3 65-6.3L65-6.3Q65.55-6.3 65.92-5.9 66.3-5.5 66.3-5L66.3-5Q66.3-4.4 65.8-3.95L65.8-3.95Q64.3-2.15 61.9-0.83 59.5 0.5 56.65 0.5ZM85.15-26.15L85.15-26.15Q88.45-26.15 90.42-24.83 92.4-23.5 93.27-21.23 94.15-18.95 94.15-16.2L94.15-16.2 94.15-1.5Q94.15-0.9 93.7-0.45 93.25 0 92.65 0L92.65 0Q91.95 0 91.55-0.45 91.15-0.9 91.15-1.5L91.15-1.5 91.15-16.05Q91.15-18.05 90.5-19.7 89.85-21.35 88.37-22.35 86.9-23.35 84.5-23.35L84.5-23.35Q82.35-23.35 80.42-22.35 78.5-21.35 77.3-19.7 76.1-18.05 76.1-16.05L76.1-16.05 76.1-1.5Q76.1-0.9 75.65-0.45 75.2 0 74.6 0L74.6 0Q73.9 0 73.5-0.45 73.1-0.9 73.1-1.5L73.1-1.5 73.1-23.9Q73.1-24.5 73.52-24.95 73.95-25.4 74.6-25.4L74.6-25.4Q75.25-25.4 75.67-24.95 76.1-24.5 76.1-23.9L76.1-23.9 76.1-19.7 74.95-17.9Q75.05-19.5 75.97-20.98 76.9-22.45 78.35-23.63 79.8-24.8 81.57-25.48 83.35-26.15 85.15-26.15ZM100.34-25.45L100.34-25.45 111.99-25.45Q112.59-25.45 112.99-25.03 113.39-24.6 113.39-24L113.39-24Q113.39-23.45 112.99-23.05 112.59-22.65 111.99-22.65L111.99-22.65 100.34-22.65Q99.74-22.65 99.32-23.08 98.89-23.5 98.89-24.05L98.89-24.05Q98.89-24.65 99.32-25.05 99.74-25.45 100.34-25.45ZM105.49-32.5L105.49-32.5Q106.14-32.5 106.57-32.05 106.99-31.6 106.99-31L106.99-31 106.99-5.9Q106.99-4.5 107.37-3.8 107.74-3.1 108.34-2.88 108.94-2.65 109.54-2.65L109.54-2.65Q109.94-2.65 110.27-2.78 110.59-2.9 110.99-2.9L110.99-2.9Q111.44-2.9 111.77-2.55 112.09-2.2 112.09-1.65L112.09-1.65Q112.09-0.95 111.29-0.48 110.49 0 109.39 0L109.39 0Q108.94 0 108.04-0.08 107.14-0.15 106.19-0.63 105.24-1.1 104.62-2.3 103.99-3.5 103.99-5.75L103.99-5.75 103.99-31Q103.99-31.6 104.42-32.05 104.84-32.5 105.49-32.5ZM142.29-12.8L142.29-12.8Q142.29-9 140.62-5.98 138.94-2.95 136.09-1.23 133.24 0.5 129.64 0.5L129.64 0.5Q126.09 0.5 123.22-1.23 120.34-2.95 118.67-5.98 116.99-9 116.99-12.8L116.99-12.8Q116.99-16.65 118.67-19.65 120.34-22.65 123.22-24.4 126.09-26.15 129.64-26.15L129.64-26.15Q133.24-26.15 136.09-24.4 138.94-22.65 140.62-19.65 142.29-16.65 142.29-12.8ZM139.29-12.8L139.29-12.8Q139.29-15.85 138.04-18.23 136.79-20.6 134.62-21.98 132.44-23.35 129.64-23.35L129.64-23.35Q126.89-23.35 124.72-21.98 122.54-20.6 121.27-18.23 119.99-15.85 119.99-12.8L119.99-12.8Q119.99-9.75 121.27-7.4 122.54-5.05 124.72-3.68 126.89-2.3 129.64-2.3L129.64-2.3Q132.44-2.3 134.62-3.68 136.79-5.05 138.04-7.4 139.29-9.75 139.29-12.8ZM149.94 0L149.94 0Q149.24 0 148.84-0.45 148.44-0.9 148.44-1.5L148.44-1.5 148.44-23.9Q148.44-24.5 148.86-24.95 149.29-25.4 149.94-25.4L149.94-25.4Q150.59-25.4 151.01-24.95 151.44-24.5 151.44-23.9L151.44-23.9 151.44-16.4 150.69-16.25Q150.84-18 151.56-19.73 152.29-21.45 153.54-22.9 154.79-24.35 156.51-25.25 158.24-26.15 160.39-26.15L160.39-26.15Q161.29-26.15 162.14-25.78 162.99-25.4 162.99-24.55L162.99-24.55Q162.99-23.8 162.59-23.4 162.19-23 161.64-23L161.64-23Q161.19-23 160.66-23.25 160.14-23.5 159.29-23.5L159.29-23.5Q157.89-23.5 156.49-22.68 155.09-21.85 153.94-20.45 152.79-19.05 152.11-17.32 151.44-15.6 151.44-13.85L151.44-13.85 151.44-1.5Q151.44-0.9 150.99-0.45 150.54 0 149.94 0ZM176.74 0.5L176.74 0.5Q173.59 0.5 171.09-1.25 168.59-3 167.29-5.85L167.29-5.85Q167.04-6.3 167.04-6.65L167.04-6.65Q167.04-7.3 167.54-7.68 168.04-8.05 168.54-8.05L168.54-8.05Q169.04-8.05 169.36-7.8 169.69-7.55 169.94-7.2L169.94-7.2Q170.89-5.1 172.69-3.8 174.49-2.5 176.74-2.5L176.74-2.5Q179.04-2.5 180.79-3.48 182.54-4.45 183.51-6.2 184.49-7.95 184.49-10.2L184.49-10.2 184.49-33.5Q184.49-34.1 184.96-34.55 185.44-35 186.09-35L186.09-35Q186.79-35 187.21-34.55 187.64-34.1 187.64-33.5L187.64-33.5 187.64-10.2Q187.64-7.1 186.24-4.67 184.84-2.25 182.39-0.88 179.94 0.5 176.74 0.5ZM215.38-25.4L215.38-25.4Q216.03-25.4 216.46-24.95 216.88-24.5 216.88-23.9L216.88-23.9 216.88-9.8Q216.88-4.85 214.08-2.25 211.28 0.35 206.53 0.35L206.53 0.35Q201.83 0.35 199.06-2.25 196.28-4.85 196.28-9.8L196.28-9.8 196.28-23.9Q196.28-24.5 196.71-24.95 197.13-25.4 197.78-25.4L197.78-25.4Q198.43-25.4 198.86-24.95 199.28-24.5 199.28-23.9L199.28-23.9 199.28-9.8Q199.28-6.2 201.21-4.33 203.13-2.45 206.53-2.45L206.53-2.45Q209.98-2.45 211.93-4.33 213.88-6.2 213.88-9.8L213.88-9.8 213.88-23.9Q213.88-24.5 214.28-24.95 214.68-25.4 215.38-25.4ZM236.78-26.15L236.78-26.15Q240.08-26.15 242.06-24.83 244.03-23.5 244.91-21.23 245.78-18.95 245.78-16.2L245.78-16.2 245.78-1.5Q245.78-0.9 245.33-0.45 244.88 0 244.28 0L244.28 0Q243.58 0 243.18-0.45 242.78-0.9 242.78-1.5L242.78-1.5 242.78-16.05Q242.78-18.05 242.13-19.7 241.48-21.35 240.01-22.35 238.53-23.35 236.13-23.35L236.13-23.35Q233.98-23.35 232.06-22.35 230.13-21.35 228.93-19.7 227.73-18.05 227.73-16.05L227.73-16.05 227.73-1.5Q227.73-0.9 227.28-0.45 226.83 0 226.23 0L226.23 0Q225.53 0 225.13-0.45 224.73-0.9 224.73-1.5L224.73-1.5 224.73-23.9Q224.73-24.5 225.16-24.95 225.58-25.4 226.23-25.4L226.23-25.4Q226.88-25.4 227.31-24.95 227.73-24.5 227.73-23.9L227.73-23.9 227.73-19.7 226.58-17.9Q226.68-19.5 227.61-20.98 228.53-22.45 229.98-23.63 231.43-24.8 233.21-25.48 234.98-26.15 236.78-26.15ZM264.68-26.15L264.68-26.15Q267.08-26.15 269.08-25.63 271.08-25.1 272.3-24.2 273.53-23.3 273.53-22.25L273.53-22.25Q273.53-21.75 273.15-21.28 272.78-20.8 272.23-20.8L272.23-20.8Q271.58-20.8 271.2-21.1 270.83-21.4 270.48-21.8 270.13-22.2 269.43-22.55L269.43-22.55Q268.78-22.85 267.55-23.1 266.33-23.35 264.83-23.35L264.83-23.35Q262.03-23.35 259.78-21.95 257.53-20.55 256.23-18.18 254.93-15.8 254.93-12.85L254.93-12.85Q254.93-9.85 256.15-7.45 257.38-5.05 259.6-3.68 261.83-2.3 264.73-2.3L264.73-2.3Q266.73-2.3 267.85-2.65 268.98-3 269.73-3.45L269.73-3.45Q270.73-4 271.15-4.53 271.58-5.05 272.28-5.05L272.28-5.05Q272.88-5.05 273.23-4.67 273.58-4.3 273.58-3.7L273.58-3.7Q273.58-2.9 272.4-1.93 271.23-0.95 269.18-0.23 267.13 0.5 264.43 0.5L264.43 0.5Q260.73 0.5 257.9-1.25 255.08-3 253.5-6.03 251.93-9.05 251.93-12.85L251.93-12.85Q251.93-16.5 253.53-19.5 255.13-22.5 257.98-24.33 260.83-26.15 264.68-26.15ZM277.68-25.45L277.68-25.45 289.33-25.45Q289.93-25.45 290.33-25.03 290.73-24.6 290.73-24L290.73-24Q290.73-23.45 290.33-23.05 289.93-22.65 289.33-22.65L289.33-22.65 277.68-22.65Q277.08-22.65 276.65-23.08 276.23-23.5 276.23-24.05L276.23-24.05Q276.23-24.65 276.65-25.05 277.08-25.45 277.68-25.45ZM282.83-32.5L282.83-32.5Q283.48-32.5 283.9-32.05 284.33-31.6 284.33-31L284.33-31 284.33-5.9Q284.33-4.5 284.7-3.8 285.08-3.1 285.68-2.88 286.28-2.65 286.88-2.65L286.88-2.65Q287.28-2.65 287.6-2.78 287.93-2.9 288.33-2.9L288.33-2.9Q288.78-2.9 289.1-2.55 289.43-2.2 289.43-1.65L289.43-1.65Q289.43-0.95 288.63-0.48 287.83 0 286.73 0L286.73 0Q286.28 0 285.38-0.08 284.48-0.15 283.53-0.63 282.58-1.1 281.95-2.3 281.33-3.5 281.33-5.75L281.33-5.75 281.33-31Q281.33-31.6 281.75-32.05 282.18-32.5 282.83-32.5ZM299.17-24.5L299.17-1.5Q299.17-0.9 298.72-0.45 298.27 0 297.67 0L297.67 0Q297.02 0 296.6-0.45 296.17-0.9 296.17-1.5L296.17-1.5 296.17-24.5Q296.17-25.1 296.6-25.55 297.02-26 297.67-26L297.67-26Q298.32-26 298.75-25.55 299.17-25.1 299.17-24.5L299.17-24.5ZM297.67-29.35L297.67-29.35Q296.62-29.35 296.1-29.83 295.57-30.3 295.57-31.2L295.57-31.2 295.57-31.7Q295.57-32.6 296.15-33.08 296.72-33.55 297.72-33.55L297.72-33.55Q298.67-33.55 299.2-33.08 299.72-32.6 299.72-31.7L299.72-31.7 299.72-31.2Q299.72-30.3 299.2-29.83 298.67-29.35 297.67-29.35ZM330.57-12.8L330.57-12.8Q330.57-9 328.9-5.98 327.22-2.95 324.37-1.23 321.52 0.5 317.92 0.5L317.92 0.5Q314.37 0.5 311.5-1.23 308.62-2.95 306.95-5.98 305.27-9 305.27-12.8L305.27-12.8Q305.27-16.65 306.95-19.65 308.62-22.65 311.5-24.4 314.37-26.15 317.92-26.15L317.92-26.15Q321.52-26.15 324.37-24.4 327.22-22.65 328.9-19.65 330.57-16.65 330.57-12.8ZM327.57-12.8L327.57-12.8Q327.57-15.85 326.32-18.23 325.07-20.6 322.9-21.98 320.72-23.35 317.92-23.35L317.92-23.35Q315.17-23.35 313-21.98 310.82-20.6 309.55-18.23 308.27-15.85 308.27-12.8L308.27-12.8Q308.27-9.75 309.55-7.4 310.82-5.05 313-3.68 315.17-2.3 317.92-2.3L317.92-2.3Q320.72-2.3 322.9-3.68 325.07-5.05 326.32-7.4 327.57-9.75 327.57-12.8ZM348.77-26.15L348.77-26.15Q352.07-26.15 354.04-24.83 356.02-23.5 356.89-21.23 357.77-18.95 357.77-16.2L357.77-16.2 357.77-1.5Q357.77-0.9 357.32-0.45 356.87 0 356.27 0L356.27 0Q355.57 0 355.17-0.45 354.77-0.9 354.77-1.5L354.77-1.5 354.77-16.05Q354.77-18.05 354.12-19.7 353.47-21.35 351.99-22.35 350.52-23.35 348.12-23.35L348.12-23.35Q345.97-23.35 344.04-22.35 342.12-21.35 340.92-19.7 339.72-18.05 339.72-16.05L339.72-16.05 339.72-1.5Q339.72-0.9 339.27-0.45 338.82 0 338.22 0L338.22 0Q337.52 0 337.12-0.45 336.72-0.9 336.72-1.5L336.72-1.5 336.72-23.9Q336.72-24.5 337.14-24.95 337.57-25.4 338.22-25.4L338.22-25.4Q338.87-25.4 339.29-24.95 339.72-24.5 339.72-23.9L339.72-23.9 339.72-19.7 338.57-17.9Q338.67-19.5 339.59-20.98 340.52-22.45 341.97-23.63 343.42-24.8 345.19-25.48 346.97-26.15 348.77-26.15Z" opacity="1" transform="matrix(1,0,0,1,0,0)" fill="#505050" class="wordmark-text-0" data-fill-palette-color="primary" id="text-0"></path></svg></g></svg></g></svg></g></svg></g><g transform="matrix(1,0,0,1,404.91063204828225,0)"><svg viewBox="0 0 57.33690841017446 54.97320138737569" height="54.97320138737569" width="57.33690841017446"><g><svg xmlns="http://www.w3.org/2000/svg" xmlns:sodipodi="http://sodipodi.sourceforge.net/DTD/sodipodi-0.dtd" viewBox="4.988141693256971 6.84375 90.02371668843122 86.3125" x="0" y="0" height="54.97320138737569" width="57.33690841017446" class="icon-icon-0" data-fill-palette-color="accent" id="icon-0"><path d="M40.875 6.844c-1.79 0-3.25 1.46-3.25 3.25l0 27.531-21.594 0 5.188-5.156c1.27-1.262 1.266-3.297 0-4.563-0.633-0.633-1.483-0.969-2.313-0.969-0.83 0-1.647 0.337-2.281 0.969L5.938 38.563c-1.268 1.264-1.264 3.326 0 4.593L16.625 53.875c1.264 1.268 3.328 1.266 4.594 0 1.266-1.266 1.27-3.332 0-4.594l-5.188-5.156 21.594 0 0 11.75c0 3.58 2.92 6.5 6.5 6.5l11.75 0 0 27.563c0 1.79 1.46 3.219 3.25 3.218 1.79 0 3.25-1.429 3.25-3.218l0-27.563 21.594 0-5.188 5.156c-1.27 1.262-1.266 3.297 0 4.563 0.633 0.633 1.483 0.969 2.313 0.969 0.83 0 1.647-0.337 2.281-0.969L94.063 61.438c1.268-1.264 1.264-3.326-0.001-4.594L83.375 46.125c-1.264-1.268-3.328-1.266-4.594 0-1.266 1.266-1.27 3.332 0 4.594l5.188 5.156-21.594 0 0-11.75c0-3.58-2.92-6.5-6.5-6.5l-11.75 0 0-27.531c0-1.79-1.46-3.25-3.25-3.25z m3.25 37.281l11.75 0 0 11.75-11.75 0z" color="#F39361" fill="#f39361" data-fill-palette-color="accent"></path></svg></g></svg></g></svg></g><defs></defs></svg><rect width="395.52" height="47.037569072125606" fill="none" stroke="none" visibility="hidden"></rect></g></svg></g></svg>